PathFileType	4	(X/Y/Z)	./resultDataOpenSim/trcMotMarkerGrf/sub10/qtm-03-04.trc
DataRate	CameraRate	NumFrames	NumMarkers	Units	OrigDataRate	OrigDataStartFrame	OrigNumFrames
250.000000	250.000000	12	24	m	250.000000	131	520
Frame#	Time	L.Toe.Tip			R.Toe.Tip			L.Ankle.Lat			R.Ankle.Lat			L.Ankle.Med			R.Ankle.Med			L.Heel			R.Heel			L.Knee.Lat			R.Knee.Lat			L.Knee.Med			R.Knee.Med			L.Thigh.Upper			R.Thigh.Upper			L.ASIS			R.ASIS			V.Sacral			L.Acromium			R.Acromium			C7			L.Elbow			R.Elbow			L.Wrist.Lat			R.Wrist.Lat
		X1	Y1	Z1	X2	Y2	Z2	X3	Y3	Z3	X4	Y4	Z4	X5	Y5	Z5	X6	Y6	Z6	X7	Y7	Z7	X8	Y8	Z8	X9	Y9	Z9	X10	Y10	Z10	X11	Y11	Z11	X12	Y12	Z12	X13	Y13	Z13	X14	Y14	Z14	X15	Y15	Z15	X16	Y16	Z16	X17	Y17	Z17	X18	Y18	Z18	X19	Y19	Z19	X20	Y20	Z20	X21	Y21	Z21	X22	Y22	Z22	X23	Y23	Z23	X24	Y24	Z24

131	0.52	-0.58963027	0.063397406	-0.13341437	-0.71202158	0.039265777	0.045502616	-0.70440472	0.13490765	-0.1227958	-0.85386502	0.055100668	0.077604965	-0.66980528	0.14409614	-0.046187059	-0.83323465	0.082622326	-0.0061604004	-0.76131639	0.12171237	-0.061267322	-0.90352304	0.032071274	0.028635327	-0.54088792	0.48391895	-0.1502225	-0.7459196	0.44445413	0.12892925	-0.50985961	0.45496579	-0.035749033	-0.73990981	0.45050491	-0.00242637	-0.6848281	0.83274813	-0.1886511	-0.70919212	0.85689914	0.19393516	-0.63811983	0.94557442	-0.11905911	-0.63396691	0.94833244	0.12447963	-0.83698798	0.9581641	9.6044405e-05	-0.71202806	1.4237345	-0.14195962	-0.70883161	1.4103002	0.18181922	-0.7929747	1.4437255	0.017222601	-0.82565197	1.096495	-0.20894605	-0.75770379	1.0630398	0.24588776	-0.67396371	0.9021882	-0.22877222	-0.605669	0.87365222	0.27820959
132	0.524	-0.57232171	0.06274902	-0.13359681	-0.71202447	0.039312163	0.045600722	-0.68863963	0.13130879	-0.12375597	-0.8539565	0.055168054	0.077581463	-0.65491487	0.1412593	-0.046613955	-0.83305232	0.082705121	-0.0061366254	-0.74604965	0.11656783	-0.062162709	-0.90352463	0.032186905	0.028574718	-0.53353847	0.48461251	-0.15019906	-0.74588044	0.44461818	0.12971667	-0.50239852	0.45575963	-0.035633291	-0.73841773	0.45021634	-0.002328085	-0.67909021	0.83277661	-0.1889422	-0.70567015	0.85641805	0.1936921	-0.63290711	0.94543255	-0.11898054	-0.62994911	0.94774277	0.1247202	-0.83355908	0.95780055	0.00061962205	-0.70736789	1.4233604	-0.14193391	-0.70421943	1.410024	0.18186408	-0.78818264	1.4433178	0.017211073	-0.82184566	1.0965878	-0.20897155	-0.75070122	1.0623067	0.24675523	-0.67177612	0.90141099	-0.23022495	-0.59591756	0.87486045	0.27780245
133	0.528	-0.55487842	0.062216173	-0.13367163	-0.71198365	0.039361299	0.045694143	-0.67267277	0.1277564	-0.12483823	-0.85405944	0.055231509	0.077560877	-0.63998507	0.1384775	-0.047058039	-0.83283067	0.082781533	-0.0060804886	-0.7307044	0.11149027	-0.063092567	-0.90352017	0.032283487	0.028545884	-0.52625552	0.48524128	-0.150321	-0.74559473	0.44470918	0.13037234	-0.49499523	0.45644038	-0.035469139	-0.73696109	0.44989124	-0.0022737669	-0.67303711	0.83282797	-0.18923086	-0.70215052	0.85590651	0.19343256	-0.62758904	0.94526056	-0.11890305	-0.62608327	0.94709508	0.12494896	-0.83098106	0.95751917	0.0021553123	-0.70266418	1.4229244	-0.14192046	-0.69958839	1.4096987	0.18189653	-0.78337874	1.4428717	0.017189841	-0.81823169	1.096652	-0.20922498	-0.74370638	1.0615399	0.24758171	-0.66958311	0.90060404	-0.23165761	-0.58623459	0.87610517	0.27738863
134	0.532	-0.53732553	0.061811477	-0.13362882	-0.71191927	0.039401444	0.04577189	-0.65672854	0.12417012	-0.12585119	-0.85414823	0.055299834	0.077535407	-0.62493305	0.13575286	-0.047508493	-0.83264615	0.082845415	-0.0060364722	-0.71508786	0.10644316	-0.064015168	-0.9035176	0.032402522	0.028426051	-0.51906147	0.48576964	-0.15052002	-0.74519538	0.44458403	0.13060193	-0.48761944	0.45701894	-0.035245625	-0.73550302	0.44953576	-0.0022562325	-0.66666225	0.83288601	-0.18948747	-0.69863196	0.85537304	0.19315337	-0.62206095	0.94505273	-0.11880621	-0.62240799	0.9463748	0.12516188	-0.82901661	0.95727132	0.0043819714	-0.69791747	1.4224308	-0.1419218	-0.69491963	1.4093254	0.18191049	-0.77856941	1.4423832	0.017153247	-0.81473309	1.0966866	-0.20962912	-0.73672044	1.0607436	0.2483702	-0.66736678	0.89976312	-0.23307518	-0.57657867	0.87737507	0.27694831
135	0.536	-0.51971907	0.061513099	-0.13346933	-0.71182565	0.039430535	0.045834211	-0.6408613	0.12054463	-0.12665755	-0.85420316	0.055380405	0.077493731	-0.60965648	0.13306205	-0.047937781	-0.83251929	0.082893016	-0.0060249478	-0.69903723	0.1013828	-0.064895295	-0.90352237	0.032573814	0.028136832	-0.51202578	0.48611675	-0.15064183	-0.74479274	0.44409053	0.13018856	-0.48030198	0.457506	-0.034987723	-0.73400896	0.44915665	-0.0022667329	-0.66017471	0.83290606	-0.18970606	-0.6951002	0.85481557	0.19284295	-0.6163806	0.94480234	-0.11869699	-0.61873682	0.9456072	0.12535675	-0.82719386	0.95699977	0.0067133761	-0.69314951	1.4218968	-0.14194238	-0.69020813	1.4089036	0.1819015	-0.77375573	1.4418456	0.017098363	-0.81122752	1.0966919	-0.21005252	-0.72973924	1.0599176	0.24911756	-0.66512407	0.89888566	-0.23447997	-0.56690659	0.87865903	0.27647266
136	0.54	-0.5020904	0.061302951	-0.13320605	-0.71170031	0.039452951	0.045894529	-0.62497267	0.11694399	-0.12728474	-0.85421417	0.055470996	0.077426167	-0.59417493	0.1303563	-0.048341789	-0.83240514	0.082920786	-0.0060318594	-0.68257949	0.096278246	-0.065775445	-0.90353617	0.0327887	0.027714799	-0.5051342	0.48623137	-0.1506403	-0.74442941	0.44323457	0.12932012	-0.47313975	0.45789011	-0.034751563	-0.73246065	0.44876136	-0.0023003664	-0.65384175	0.83284369	-0.18991828	-0.69154746	0.85423092	0.19249991	-0.6107251	0.94450387	-0.11861122	-0.61474741	0.94484718	0.12553141	-0.82503042	0.95666329	0.0085662001	-0.68841102	1.4213539	-0.14200052	-0.68545516	1.4084289	0.18186698	-0.76893124	1.4412567	0.017025953	-0.8076417	1.0966679	-0.21041251	-0.7227573	1.0590585	0.24981896	-0.66286371	0.89797666	-0.2358689	-0.55721356	0.87995526	0.27596483
137	0.544	-0.48447687	0.061166916	-0.13286843	-0.71155808	0.039479039	0.045968761	-0.60900753	0.11342296	-0.12783621	-0.85418645	0.055560542	0.077335341	-0.57867198	0.12763913	-0.048737908	-0.83224707	0.082932203	-0.0060378876	-0.66589766	0.091162789	-0.066723826	-0.90355358	0.033002594	0.027306252	-0.49829605	0.48610556	-0.15057491	-0.74395391	0.44224924	0.12848689	-0.46622946	0.45814506	-0.034588704	-0.7308603	0.44835465	-0.0023566048	-0.64777501	0.83267589	-0.19015506	-0.68797564	0.85361948	0.1921352	-0.60520022	0.94415241	-0.11857477	-0.61034032	0.94412338	0.12568487	-0.82224773	0.95624271	0.0096321908	-0.68375906	1.4208327	-0.14212535	-0.68066302	1.4078969	0.18181149	-0.76409055	1.440623	0.016937348	-0.80396606	1.0966111	-0.21069491	-0.71577406	1.058166	0.25047786	-0.66059921	0.89704302	-0.23723833	-0.54751371	0.88126744	0.27542889
138	0.548	-0.46692036	0.061087756	-0.13247714	-0.71141779	0.0395235	0.046061038	-0.59297035	0.11000257	-0.12838099	-0.85413693	0.055638607	0.07723927	-0.56330867	0.125015	-0.049117227	-0.83203526	0.082948046	-0.0060494086	-0.64918852	0.086159327	-0.067729092	-0.90356618	0.033180777	0.027027412	-0.49146018	0.48577132	-0.15052316	-0.74304167	0.44143202	0.12800421	-0.45959645	0.45825715	-0.034510261	-0.72922185	0.44793547	-0.0024331056	-0.64191513	0.83240249	-0.19042123	-0.68438408	0.85298255	0.19176201	-0.59976525	0.94374666	-0.11857727	-0.60574092	0.94341237	0.12582077	-0.81884602	0.95572057	0.0099869771	-0.67918458	1.4203223	-0.14231787	-0.67583895	1.407307	0.18174333	-0.75923228	1.4399511	0.016831989	-0.80022686	1.0965186	-0.21092851	-0.70879193	1.0572422	0.25110248	-0.65833863	0.89608614	-0.23858431	-0.53782204	0.88259323	0.27486302
139	0.552	-0.4494265	0.061059032	-0.13201555	-0.71130316	0.039590894	0.046145828	-0.57682492	0.10670013	-0.12892054	-0.85408449	0.055705327	0.07716039	-0.54808157	0.12257422	-0.049471456	-0.83180809	0.082990764	-0.0060925206	-0.63254682	0.081386199	-0.068708148	-0.90357029	0.033327636	0.026872086	-0.4846595	0.48529135	-0.15053465	-0.74147777	0.44091134	0.12781868	-0.45319783	0.45823347	-0.034486251	-0.72755959	0.44750254	-0.0025218192	-0.63614324	0.83204321	-0.19070716	-0.6807659	0.85232257	0.19139111	-0.59432197	0.94328674	-0.11858801	-0.60120985	0.94267085	0.1259399	-0.81495655	0.95505811	0.0098864209	-0.67457957	1.4197576	-0.14252974	-0.67099306	1.4066616	0.18166412	-0.75435653	1.4392417	0.016709755	-0.79645536	1.0963904	-0.2111509	-0.70180927	1.0562869	0.25169444	-0.65608114	0.89510214	-0.23990194	-0.52815075	0.88392379	0.27426619
140	0.556	-0.43196826	0.06109194	-0.13143984	-0.71124236	0.039661221	0.046180281	-0.56051577	0.10354013	-0.12942518	-0.8540409	0.055772496	0.077114005	-0.53290151	0.12029467	-0.049830664	-0.83160021	0.083053038	-0.0061785871	-0.61595011	0.076875923	-0.069602275	-0.90356765	0.033467279	0.026771598	-0.47794444	0.48471437	-0.15061947	-0.73931703	0.4406	0.1277188	-0.44698001	0.45808908	-0.03447559	-0.72587691	0.44705899	-0.0026122497	-0.63034269	0.83162799	-0.19100245	-0.67711483	0.85164352	0.19102767	-0.5888119	0.94277016	-0.1185855	-0.59681597	0.94187241	0.12603136	-0.81072275	0.95424826	0.0095309188	-0.66983157	1.4190755	-0.14270902	-0.66612685	1.4059608	0.18156725	-0.74946574	1.4384933	0.016574853	-0.792671	1.0962259	-0.2113848	-0.6948206	1.0552971	0.25224899	-0.65382263	0.89408491	-0.24119279	-0.51850853	0.88525363	0.27364263
141	0.56	-0.41452577	0.061202949	-0.13071058	-0.7112405	0.039701444	0.046151459	-0.54406867	0.10053326	-0.12989992	-0.85400936	0.055853757	0.077099911	-0.51770786	0.11812611	-0.050199295	-0.83141123	0.083106197	-0.006293454	-0.59934754	0.072624846	-0.07045427	-0.90356092	0.033615896	0.026676527	-0.47133251	0.48404453	-0.15076554	-0.73674646	0.44033345	0.12753055	-0.44091658	0.4578344	-0.034453052	-0.72415338	0.44660853	-0.0027002972	-0.62440826	0.83117916	-0.19129498	-0.67343008	0.85094538	0.19066868	-0.58323143	0.94219623	-0.11856805	-0.59249057	0.94101691	0.12608597	-0.80636368	0.95338324	0.0090933248	-0.66492642	1.4182666	-0.14284668	-0.66123093	1.4052042	0.18144872	-0.74456343	1.437706	0.016434482	-0.7888794	1.0960208	-0.21163702	-0.68782345	1.0542703	0.25276437	-0.65156576	0.89302831	-0.24247061	-0.50890244	0.88658437	0.27299616
142	0.564	-0.39710962	0.061401151	-0.12981215	-0.71127456	0.039693904	0.046084987	-0.52757528	0.097674135	-0.13038885	-0.85399401	0.055954423	0.077097015	-0.50251423	0.11607341	-0.050525656	-0.83122745	0.083135256	-0.0064175297	-0.58271682	0.068644416	-0.07138968	-0.90355184	0.033775961	0.026569283	-0.46482893	0.48326396	-0.15095953	-0.73399548	0.44000286	0.1271633	-0.43500577	0.45746984	-0.034418286	-0.72234844	0.44615017	-0.0027952543	-0.61827468	0.83070546	-0.19157018	-0.66971309	0.85021815	0.19030887	-0.57760056	0.94156968	-0.11854384	-0.58817134	0.94012127	0.12611574	-0.80206927	0.952565	0.0086948342	-0.65992287	1.4173608	-0.14296447	-0.65629806	1.4043969	0.18131484	-0.73964995	1.436878	0.016292722	-0.78508046	1.0957705	-0.21192041	-0.68082157	1.0532055	0.25324392	-0.64931956	0.89192925	-0.24375036	-0.49933804	0.88791843	0.27232177
